<?xml version="1.0" standalone="no"?>
<!DOCTYPE svg PUBLIC "-//W3C//DTD SVG 20010904//EN"
 "http://www.w3.org/TR/2001/REC-SVG-20010904/DTD/svg10.dtd">
<svg version="1.0" xmlns="http://www.w3.org/2000/svg"
 width="240.000000pt" height="240.000000pt" viewBox="0 0 240.000000 240.000000"
 preserveAspectRatio="xMidYMid meet">

<g transform="translate(0.000000,240.000000) scale(0.100000,-0.100000)"
fill="#000000" stroke="none">
<path d="M1014 2290 c-146 -26 -350 -113 -459 -195 -292 -220 -454 -538 -455
-891 0 -194 35 -337 126 -514 103 -200 276 -371 479 -472 163 -82 314 -118
495 -118 181 0 332 36 495 118 306 153 526 448 591 789 25 133 15 357 -21 478
-118 398 -381 662 -780 781 -79 23 -111 27 -255 30 -91 1 -188 -1 -216 -6z
m-24 -400 l0 -70 -65 0 -65 0 0 70 0 70 65 0 65 0 0 -70z m-277 -197 c3 -71 5
-164 4 -208 l-2 -80 -65 0 -65 0 -3 208 -2 207 63 0 64 0 6 -127z m142 57 l0
-65 -67 -3 -68 -3 0 71 0 71 68 -3 67 -3 0 -65z m553 -140 l-3 -70 142 0 142
0 0 -135 0 -135 -140 0 -141 0 4 68 3 67 -70 0 -70 0 0 70 0 70 -137 -3 -138
-2 0 70 0 70 206 0 206 -1 -4 -69z m412 0 l0 -71 -62 3 -63 3 -3 68 -3 67 66
0 65 0 0 -70z m-970 -275 l0 -65 -65 0 -65 0 0 65 0 65 65 0 65 0 0 -65z m280
0 l0 -65 -135 0 -135 0 0 65 0 65 135 0 135 0 0 -65z m-280 -275 l0 -70 -65 0
-65 0 0 70 0 70 65 0 65 0 0 -70z m280 0 l0 -69 -135 0 -135 0 0 69 0 69 135
0 135 0 0 -69z m555 -70 l0 -135 -138 0 -137 0 0 -67 0 -68 -205 0 -205 0 0
65 0 65 138 0 137 0 -3 71 -4 71 74 -4 73 -3 -3 58 c-6 91 -11 88 140 85 l133
-3 0 -135z m-968 -137 l3 -133 -70 0 -70 0 0 135 0 136 68 -3 67 -3 2 -132z
m1103 -68 l0 -65 -65 0 -65 0 0 65 0 65 65 0 65 0 0 -65z m-1110 -140 l0 -65
-65 0 -65 0 0 65 0 65 65 0 65 0 0 -65z m150 0 l0 -65 -70 0 -70 0 0 65 0 65
70 0 70 0 0 -65z m130 -140 l0 -65 -65 0 -65 0 0 65 0 65 65 0 65 0 0 -65z"/>
</g>
</svg>
